<?xml version="1.0" standalone="no"?>
<!DOCTYPE svg PUBLIC "-//W3C//DTD SVG 20010904//EN"
 "http://www.w3.org/TR/2001/REC-SVG-20010904/DTD/svg10.dtd">
<svg version="1.0" xmlns="http://www.w3.org/2000/svg"
 width="1024.000000pt" height="1536.000000pt" viewBox="0 0 1024.000000 1536.000000"
 preserveAspectRatio="xMidYMid meet">

<g transform="translate(0.000000,1536.000000) scale(0.100000,-0.100000)"
fill="#000000" stroke="none">
<path d="M2695 14229 c-218 -26 -431 -119 -606 -265 -102 -85 -166 -156 -245
-275 -148 -221 -207 -433 -207 -739 0 -324 75 -566 246 -795 159 -214 379
-375 598 -438 186 -54 66 -51 1759 -56 1506 -6 1567 -7 1615 -25 130 -49 216
-143 275 -299 45 -120 63 -161 75 -169 59 -42 289 105 410 262 26 33 66 98 91
144 l45 84 412 4 c374 4 420 6 502 25 399 93 721 389 868 798 51 143 82 371
72 528 -18 291 -104 537 -258 743 -63 84 -219 231 -304 287 -150 99 -335 167
-508 187 -110 12 -4736 11 -4840 -1z m4804 -109 c412 -43 756 -312 912 -715
79 -204 105 -512 61 -717 -84 -386 -301 -667 -635 -823 -177 -83 -271 -94
-761 -95 l-379 0 -31 -33 c-17 -18 -40 -57 -50 -87 -44 -122 -186 -288 -288
-335 l-52 -24 -32 84 c-73 195 -179 308 -344 367 l-65 23 -1575 6 c-1098 4
-1589 9 -1620 17 -164 40 -317 108 -430 192 -133 98 -274 269 -353 426 -83
166 -126 428 -107 646 25 287 110 500 279 696 177 206 435 343 696 372 112 12
4656 12 4774 0z" fill="#ff9900"/>
<path d="M7533 13314 c-42 -15 -123 -92 -123 -117 0 -8 19 -27 43 -44 l42 -31
28 24 c52 45 133 44 164 -2 24 -37 4 -89 -62 -167 -58 -68 -85 -120 -85 -162
0 -26 1 -26 67 -23 58 3 68 6 72 23 2 11 28 47 58 80 96 104 108 128 108 209
-1 115 -42 174 -148 210 -58 19 -108 19 -164 0z" fill="#ff9900"/>
<path d="M2450 12946 c0 -206 -3 -381 -6 -390 -5 -14 5 -16 70 -16 l76 0 1
268 c0 216 3 261 12 236 7 -16 60 -114 119 -216 59 -102 120 -208 134 -237
l27 -51 88 0 89 0 0 390 0 390 -76 0 -77 0 5 -265 c2 -146 1 -265 -4 -265 -4
0 -8 5 -8 11 0 6 -8 23 -19 37 -20 29 -186 321 -237 417 l-31 60 -82 3 -81 3
0 -375z" fill="#ff9900"/>
<path d="M4780 13185 c0 -74 -2 -135 -4 -135 -3 0 -27 12 -53 26 -42 22 -58
25 -124 22 -99 -4 -141 -31 -189 -119 -33 -61 -35 -69 -35 -164 0 -114 17
-166 74 -223 49 -48 87 -64 155 -65 68 -1 117 18 153 61 l23 27 0 -37 0 -38
75 0 75 0 0 390 0 390 -75 0 -75 0 0 -135z m-59 -238 c21 -14 39 -37 47 -62
18 -54 10 -146 -16 -183 -24 -33 -89 -56 -132 -47 -82 18 -123 136 -83 236 30
76 116 102 184 56z" fill="#ff9900"/>
<path d="M5314 12930 l1 -390 72 0 71 0 4 178 c2 118 8 184 16 200 19 33 57
54 99 54 29 0 43 -7 65 -31 l28 -31 0 -185 0 -185 75 0 75 0 0 185 c0 205 -10
271 -47 316 -38 45 -74 59 -148 59 -51 0 -77 -6 -117 -26 l-50 -26 4 136 4
136 -77 0 -77 0 2 -390z" fill="#ff9900"/>
<path d="M6548 12930 l2 -390 75 0 75 0 0 390 0 390 -77 0 -78 0 3 -390z" fill="#ff9900"/>
<path d="M3334 13076 c-101 -47 -153 -157 -140 -295 10 -108 65 -193 151 -232
64 -29 192 -26 255 6 52 27 84 63 78 91 -2 9 -19 25 -39 37 l-36 21 -34 -25
c-45 -32 -145 -34 -180 -4 -18 17 -49 72 -49 89 0 3 82 7 183 8 l182 3 -2 67
c-4 116 -59 207 -149 244 -54 23 -161 18 -220 -10z m178 -107 c21 -11 60 -87
52 -101 -3 -4 -55 -8 -115 -8 -110 0 -110 0 -104 23 12 38 45 85 63 90 33 9
84 7 104 -4z" fill="#ff9900"/>
<path d="M3934 13082 c-101 -48 -150 -145 -142 -286 5 -99 39 -171 106 -222
101 -77 281 -63 357 28 35 41 32 55 -19 79 l-43 22 -31 -23 c-21 -15 -50 -25
-86 -28 -50 -4 -56 -2 -90 29 -19 19 -38 46 -42 62 l-6 27 182 0 183 0 -5 84
c-4 72 -9 92 -34 133 -16 26 -49 61 -73 78 -38 27 -51 30 -129 33 -69 2 -96
-1 -128 -16z m177 -112 c22 -12 49 -61 49 -90 0 -19 -6 -20 -111 -20 l-111 0
6 33 c9 48 57 87 107 87 22 0 49 -5 60 -10z" fill="#ff9900"/>
<path d="M6073 13079 c-23 -11 -60 -40 -82 -64 -113 -123 -82 -360 60 -447
114 -71 294 -46 356 48 17 26 16 27 -18 55 -41 34 -51 35 -88 8 -40 -29 -100
-35 -144 -14 -34 16 -77 68 -77 94 0 8 53 11 180 11 l180 0 0 53 c0 114 -59
219 -144 258 -58 26 -168 26 -223 -2z m176 -115 c25 -18 55 -79 46 -94 -7 -11
-208 -14 -218 -4 -10 10 12 57 41 87 30 32 93 37 131 11z" fill="#ff9900"/>
<path d="M6830 12705 l0 -390 72 1 72 2 -3 99 c-3 101 6 183 18 165 3 -5 22
-19 41 -31 28 -16 51 -21 111 -21 68 0 80 3 116 29 84 61 118 146 110 274 -7
107 -21 150 -63 197 -47 51 -90 70 -163 70 -62 0 -98 -11 -141 -43 -25 -19
-25 -19 -30 5 -5 21 -13 24 -73 28 l-67 5 0 -390z m343 237 c42 -40 49 -58 48
-129 -2 -127 -75 -190 -173 -149 -50 21 -72 65 -72 141 -2 144 109 221 197
137z" fill="#ff9900"/>
<path d="M7546 12669 c-29 -34 -31 -45 -16 -85 15 -38 38 -53 83 -54 52 0 87
35 87 88 0 52 -32 82 -87 82 -34 0 -46 -6 -67 -31z" fill="#ff9900"/>
<path d="M4910 11194 c-14 -2 -65 -9 -115 -15 -221 -27 -506 -110 -710 -208
-219 -105 -382 -218 -549 -380 -211 -206 -359 -425 -461 -686 l-31 -80 -82
-17 c-111 -23 -188 -66 -267 -149 -117 -125 -165 -261 -165 -475 0 -280 105
-479 304 -574 45 -21 104 -43 132 -50 l52 -11 28 -77 c211 -587 705 -1029
1361 -1218 10 -2 10 -9 2 -28 -10 -21 -21 -26 -68 -31 -209 -24 -367 -68 -539
-150 -237 -114 -433 -270 -574 -457 -99 -132 -222 -373 -339 -666 -89 -223
-204 -433 -253 -463 -28 -17 -53 -19 -235 -19 l-204 0 -55 61 c-30 33 -94 87
-141 118 -160 108 -178 142 -183 337 l-3 122 63 6 c128 13 431 107 440 136 2
5 8 10 14 10 27 0 188 123 267 205 171 177 282 384 323 602 17 89 17 378 0
467 -16 86 -54 202 -87 267 -14 28 -25 55 -25 60 0 6 -5 15 -10 22 -6 7 -28
39 -49 72 -88 137 -252 285 -423 383 -230 130 -541 174 -816 113 -93 -21 -219
-64 -236 -81 -6 -6 -16 -10 -23 -10 -24 0 -179 -105 -261 -177 -91 -80 -119
-111 -178 -193 -103 -143 -144 -229 -185 -388 -51 -197 -48 -432 7 -632 21
-75 92 -245 115 -274 11 -13 19 -27 19 -30 0 -15 100 -145 158 -206 165 -171
374 -286 610 -335 40 -8 89 -15 108 -15 l35 0 -6 -52 c-3 -29 -2 -98 3 -154
13 -132 47 -202 145 -298 39 -38 62 -66 51 -62 -86 33 -304 60 -420 52 l-91
-6 -54 82 c-139 212 -234 294 -340 291 -87 -2 -162 -57 -190 -140 -19 -60 -6
-243 25 -339 143 -441 515 -772 949 -845 63 -11 77 -16 80 -33 3 -12 5 -126 6
-253 1 -244 11 -329 52 -439 44 -118 178 -270 289 -328 144 -75 88 -70 860
-76 632 -5 700 -8 750 -24 185 -60 303 -179 340 -342 7 -27 15 -128 20 -224 5
-96 14 -193 21 -215 45 -157 177 -295 280 -295 48 0 83 33 74 69 -9 36 -24 51
-70 71 -22 9 -55 32 -73 51 -72 72 -89 137 -102 370 -9 177 -18 227 -55 313
-27 64 -90 149 -146 200 -60 54 -209 129 -287 145 -35 7 -273 11 -695 11 -369
0 -668 4 -702 10 -178 29 -338 177 -392 364 -19 63 -32 556 -15 556 6 0 31 -9
56 -19 154 -67 398 -129 555 -142 224 -18 364 18 565 148 92 59 249 214 316
312 30 44 58 80 61 81 3 0 18 -48 34 -107 41 -160 116 -370 159 -446 126 -227
334 -332 776 -394 104 -14 203 -17 590 -18 494 0 576 5 805 51 323 65 511 180
603 368 43 86 110 283 167 494 10 34 22 62 26 62 5 0 9 -4 9 -9 0 -5 33 -53
74 -107 199 -267 438 -413 717 -439 147 -14 353 26 624 119 72 24 132 42 135
39 11 -10 11 -352 1 -441 -26 -218 -143 -376 -336 -453 l-60 -24 -705 -5 -705
-5 -72 -26 c-100 -37 -153 -70 -231 -144 -76 -71 -123 -144 -159 -243 -21 -57
-25 -90 -29 -222 -8 -245 -24 -314 -94 -393 -16 -18 -48 -42 -72 -52 -62 -27
-78 -44 -78 -80 0 -66 64 -84 150 -40 71 36 116 79 154 149 47 85 63 165 70
351 7 165 19 234 55 307 50 102 167 199 290 240 65 22 78 22 756 28 631 5 695
7 745 24 222 74 364 222 440 462 23 73 28 143 33 461 1 89 5 164 8 167 3 3 30
9 59 12 135 15 333 93 481 190 101 66 252 219 327 332 138 207 201 398 190
580 -4 68 -10 89 -34 129 -75 120 -212 127 -336 15 -41 -37 -139 -158 -196
-242 l-30 -45 -159 -1 c-121 -1 -180 -6 -253 -23 -52 -11 -96 -21 -99 -21 -2
0 27 31 66 68 44 44 80 89 99 127 27 57 29 65 29 205 l0 145 -70 0 -70 0 -1
-110 c-1 -60 -7 -129 -13 -152 -18 -65 -68 -123 -166 -188 -63 -43 -100 -76
-129 -117 l-41 -57 -230 2 -230 2 -47 70 c-62 93 -141 253 -263 537 -163 378
-283 569 -459 736 -109 102 -196 162 -352 240 -190 95 -379 151 -573 167 -80
8 -82 8 -79 33 3 22 17 29 141 73 493 173 822 443 1085 890 46 78 127 254 149
324 8 26 18 32 69 46 171 46 273 129 349 284 57 117 70 181 69 345 0 111 -5
148 -23 210 -37 120 -77 188 -156 267 -81 82 -163 126 -263 145 l-60 11 -32
81 c-55 139 -135 283 -239 431 -75 108 -285 321 -401 409 -295 222 -654 370
-1048 432 -101 15 -510 29 -572 18z m506 -164 c430 -61 748 -188 1042 -418
271 -211 456 -451 564 -732 119 -307 148 -456 148 -748 0 -208 -8 -283 -41
-422 -63 -263 -175 -493 -339 -700 -313 -393 -768 -630 -1355 -706 -182 -23
-558 -16 -730 15 -527 93 -964 331 -1235 672 -139 174 -225 327 -290 515 -90
262 -114 424 -107 719 3 133 11 225 22 275 49 224 167 491 310 705 245 369
685 664 1167 784 248 62 582 78 844 41z m-2447 -1440 c-51 -198 -57 -608 -13
-832 7 -36 -10 -36 -74 -4 -51 26 -120 94 -146 144 -34 66 -56 175 -56 278 0
231 91 405 244 463 28 11 54 20 57 20 3 1 -3 -30 -12 -69z m4374 32 c93 -50
181 -178 206 -300 14 -69 14 -226 0 -294 -13 -62 -56 -151 -95 -197 -32 -39
-97 -84 -143 -99 l-33 -12 6 33 c44 246 30 671 -31 890 -4 16 -1 18 19 12 12
-4 45 -19 71 -33z m-5366 -1563 c79 -22 204 -78 233 -104 9 -8 20 -15 24 -15
4 0 36 -25 71 -55 142 -125 225 -279 261 -487 22 -127 6 -276 -42 -394 -40
-100 -71 -163 -90 -182 -8 -7 -14 -18 -14 -23 0 -6 -42 -51 -93 -102 -77 -76
-110 -101 -188 -139 -137 -69 -226 -90 -373 -90 -124 -1 -203 13 -321 53 l-60
21 -210 -56 c-115 -30 -212 -53 -214 -50 -6 6 12 106 52 281 28 128 30 147 19
185 -61 211 -65 231 -64 363 0 108 4 145 25 217 74 259 245 450 491 548 43 18
111 38 150 46 95 18 246 11 343 -17z m3723 -877 c0 -58 -38 -122 -93 -159
-170 -114 -497 -144 -780 -72 -190 48 -277 117 -277 219 0 47 -6 45 128 26
171 -26 391 -39 542 -33 130 5 438 42 449 53 2 2 10 4 18 4 8 0 13 -13 13 -38z
m-1227 -196 c140 -144 364 -216 667 -216 293 1 512 70 638 204 29 30 52 60 52
65 0 16 89 13 200 -4 171 -28 372 -109 439 -177 39 -39 117 -200 160 -325 110
-331 120 -869 22 -1253 -106 -420 -191 -697 -249 -820 -103 -219 -345 -319
-876 -361 -204 -16 -825 -7 -1006 16 -153 18 -301 53 -392 91 -199 84 -256
152 -357 425 -95 258 -195 671 -226 924 -35 295 -31 512 16 750 39 203 62 261
172 455 42 75 120 149 192 184 103 50 283 95 435 109 19 2 36 5 38 5 2 1 36
-31 75 -72z m-937 -299 c-94 -212 -156 -596 -141 -877 12 -225 50 -492 95
-671 14 -56 14 -58 -83 -189 -86 -117 -191 -226 -278 -291 -37 -27 -68 -49
-71 -49 -2 0 6 31 19 69 12 38 26 100 29 138 6 62 2 101 -21 227 -10 50 -62
154 -109 215 -40 51 -147 144 -183 158 -9 3 -3 20 19 51 41 60 142 264 213
432 92 219 208 447 283 560 63 95 224 280 243 280 4 0 -3 -24 -15 -53z m3231
-4 c156 -155 289 -382 474 -815 91 -214 147 -327 201 -406 16 -23 27 -46 24
-51 -4 -5 -30 -23 -59 -39 -103 -58 -200 -182 -243 -312 -27 -78 -27 -302 0
-378 10 -29 16 -55 14 -58 -11 -10 -110 67 -190 148 -83 84 -222 275 -233 321
-3 12 8 78 25 147 53 219 73 418 67 695 -5 248 -13 315 -62 525 -27 111 -71
247 -87 268 -7 8 -7 12 0 12 6 0 37 -26 69 -57z m-5733 -904 c25 -19 134 -155
214 -266 29 -41 32 -52 32 -117 0 -187 88 -328 254 -410 85 -42 117 -47 145
-22 50 45 28 82 -79 136 -96 48 -143 100 -170 188 -20 64 -27 147 -12 155 18
10 286 -13 366 -32 235 -56 343 -161 354 -344 7 -120 -17 -198 -83 -264 -76
-76 -119 -84 -284 -58 -260 43 -478 173 -651 390 -119 149 -203 356 -217 532
-6 78 -5 82 20 107 32 32 74 34 111 5z m8276 11 c85 -46 15 -369 -125 -581
-95 -142 -279 -311 -414 -378 -123 -62 -332 -110 -431 -98 -59 7 -103 28 -148
71 -127 119 -115 375 23 493 58 50 168 100 260 119 44 9 142 19 219 21 l139 6
-5 -80 c-8 -147 -72 -232 -210 -283 -83 -30 -102 -81 -47 -122 25 -19 26 -19
90 2 195 65 309 230 309 448 0 54 2 58 94 181 144 192 191 230 246 201z
m-6559 -501 c101 -51 196 -195 219 -330 29 -174 -35 -360 -148 -426 -42 -25
-56 -28 -132 -27 -114 1 -243 27 -433 85 -87 26 -162 51 -167 54 -6 4 14 28
43 55 89 82 137 199 137 340 0 77 -23 182 -50 227 -18 31 -18 33 -2 34 9 1 89
5 177 9 209 10 308 4 356 -21z m5217 15 c40 -3 71 -9 70 -12 -35 -64 -51 -116
-58 -188 -19 -186 37 -334 162 -424 l39 -28 -54 -20 c-220 -83 -406 -125 -552
-126 -94 0 -116 3 -150 21 -46 24 -86 65 -108 108 -43 85 -60 261 -36 364 35
155 159 282 302 311 41 8 240 5 385 -6z" fill="#ff9900"/>
<path d="M4036 10284 c-193 -42 -381 -142 -508 -271 -71 -73 -166 -200 -203
-273 -13 -25 -35 -56 -49 -69 -34 -32 -47 -76 -45 -148 1 -32 -5 -85 -14 -118
-50 -193 -39 -500 29 -772 75 -301 285 -649 502 -829 263 -219 589 -361 987
-431 145 -25 612 -25 775 0 306 48 604 162 845 322 116 78 278 234 373 360 94
126 207 351 250 501 53 182 72 321 72 529 0 151 -4 200 -22 282 -12 54 -22
127 -23 163 -2 95 -1 94 -46 146 -22 27 -50 67 -61 89 -91 176 -271 351 -448
437 -155 74 -258 98 -435 98 -193 0 -290 -24 -496 -121 -204 -96 -329 -122
-495 -100 -99 12 -173 37 -324 106 -133 61 -219 90 -310 105 -92 14 -273 11
-354 -6z m390 -153 c95 -23 153 -45 294 -111 150 -71 238 -92 385 -93 157 0
228 16 412 96 174 77 251 101 363 118 99 14 261 7 345 -16 172 -46 343 -158
440 -287 48 -64 84 -125 67 -114 -25 15 -240 66 -337 80 -261 35 -491 30 -686
-15 -162 -38 -304 -141 -374 -271 -15 -29 -29 -54 -29 -55 -1 -1 -26 4 -55 12
-94 24 -170 28 -244 11 -38 -9 -72 -16 -76 -16 -4 0 -19 21 -32 48 -38 76
-147 176 -243 222 -130 61 -246 80 -497 80 -227 0 -397 -19 -558 -65 -47 -13
-87 -22 -89 -20 -9 9 68 107 142 180 163 160 343 234 576 235 80 0 139 -6 196
-19z m-21 -481 c209 -38 341 -141 380 -295 35 -139 7 -378 -61 -512 -40 -79
-117 -164 -176 -194 -89 -45 -186 -64 -338 -64 -167 0 -220 10 -336 66 -200
95 -313 328 -301 619 11 265 99 353 389 390 91 11 363 5 443 -10z m1845 10
c129 -14 200 -33 257 -71 70 -47 110 -100 134 -182 19 -64 21 -88 16 -212 -6
-150 -22 -216 -82 -335 -37 -72 -136 -170 -211 -208 -105 -53 -172 -66 -339
-66 -220 0 -320 32 -422 133 -68 69 -137 207 -159 319 -23 117 -16 265 16 352
50 136 189 232 382 264 100 17 278 19 408 6z m-2850 -347 c-1 -449 198 -760
547 -855 109 -29 323 -36 453 -14 164 28 331 126 411 242 96 141 137 279 146
496 5 122 9 148 22 154 33 13 189 16 238 5 l50 -12 6 -142 c6 -170 28 -261 94
-397 37 -78 60 -109 123 -172 77 -76 118 -103 202 -133 114 -42 161 -49 343
-49 205 -1 280 14 408 81 245 129 390 423 399 803 1 55 5 96 9 92 3 -4 14 -38
24 -77 33 -130 31 -468 -5 -605 -5 -19 -16 -64 -25 -100 -24 -91 -89 -257
-135 -341 -138 -251 -390 -486 -665 -620 -574 -279 -1288 -278 -1850 2 -191
95 -353 218 -495 376 -170 189 -303 483 -350 773 -18 105 -18 378 -1 470 13
74 35 140 45 140 3 0 6 -53 6 -117z" fill="#ff9900"/>
<path d="M4210 9461 c-91 -20 -195 -113 -226 -201 -29 -84 -25 -208 10 -282
31 -65 98 -131 164 -161 70 -31 179 -30 253 4 171 80 243 294 158 475 -58 121
-219 196 -359 165z m146 -175 c27 -27 34 -42 34 -72 -1 -48 -16 -69 -63 -89
-52 -22 -104 -3 -130 48 -23 46 -17 78 23 118 41 42 91 40 136 -5z" fill="#ff9900"/>
<path d="M5869 9461 c-84 -17 -172 -93 -213 -180 -17 -37 -21 -65 -21 -141 1
-83 4 -103 29 -158 111 -243 447 -247 574 -7 24 45 27 61 27 155 0 92 -3 111
-25 154 -36 71 -100 131 -166 156 -63 23 -151 33 -205 21z m147 -175 c43 -43
46 -90 9 -134 -30 -36 -75 -47 -120 -28 -41 17 -55 42 -55 96 0 33 6 48 29 71
42 42 92 40 137 -5z" fill="#ff9900"/>
<path d="M4670 8322 c-15 -12 -22 -29 -23 -55 -1 -30 6 -44 36 -75 168 -172
500 -215 738 -96 110 55 190 144 174 195 -20 61 -77 65 -143 10 -103 -85 -233
-127 -367 -118 -122 9 -193 37 -298 119 -54 42 -84 47 -117 20z" fill="#ff9900"/>
<path d="M1603 7910 c-123 -32 -209 -85 -315 -192 -37 -38 -70 -77 -73 -88 -4
-11 -10 -20 -15 -20 -4 0 -11 -8 -15 -17 -36 -86 -57 -165 -67 -255 -10 -93
-10 -119 4 -193 9 -47 33 -121 53 -165 39 -85 38 -80 16 -235 -6 -38 -11 -73
-11 -77 0 -13 45 -9 134 12 l86 21 98 -38 97 -37 165 -1 c146 0 173 3 235 23
195 65 353 238 406 444 28 110 23 290 -11 385 -48 136 -138 254 -255 335 -155
106 -358 144 -532 98z m-10 -272 c11 -10 28 -45 39 -76 27 -76 21 -153 -17
-212 -27 -43 -27 -44 -10 -73 28 -46 55 -75 115 -122 49 -38 130 -85 145 -85
3 0 28 21 55 46 57 54 70 55 164 24 83 -27 117 -60 109 -104 -10 -54 -42 -105
-86 -137 -40 -29 -46 -30 -117 -26 -94 5 -146 19 -240 64 -142 68 -256 176
-327 309 -92 175 -76 349 39 403 50 24 103 20 131 -11z" fill="#00ff00"/>
<path d="M5044 6469 c-92 -12 -141 -27 -229 -72 -367 -188 -447 -704 -156
-1005 123 -128 284 -194 471 -193 159 0 264 34 390 127 100 73 188 210 221
344 7 30 13 107 13 170 1 127 -18 201 -77 315 -43 83 -154 192 -242 237 -123
64 -270 93 -391 77z m240 -168 c127 -45 225 -130 282 -246 123 -251 19 -553
-231 -672 -71 -33 -87 -37 -185 -41 -164 -7 -278 35 -386 143 -75 75 -114 159
-135 295 -37 239 114 468 352 535 74 21 224 14 303 -14z" fill="#ff9900"/>
<path d="M8335 8439 c-245 -36 -450 -133 -630 -299 -122 -113 -189 -201 -256
-336 -99 -202 -132 -380 -117 -636 17 -292 114 -507 335 -739 142 -148 382
-290 497 -293 59 -1 66 19 66 190 l0 141 -61 -21 c-54 -17 -69 -18 -126 -9
-68 12 -133 41 -171 76 -13 12 -44 56 -70 97 -25 41 -68 101 -95 133 -52 61
-55 82 -12 93 59 15 119 -24 196 -126 34 -45 72 -84 97 -98 47 -26 123 -38
177 -28 31 6 39 14 54 49 10 24 28 62 40 86 11 25 20 46 18 47 -1 2 -35 10
-75 18 -40 8 -107 33 -153 57 -135 70 -208 162 -245 309 -35 139 6 358 80 427
32 30 34 34 25 72 -14 63 -14 202 0 244 15 44 42 55 98 37 53 -18 130 -57 179
-92 l41 -29 79 23 c110 31 266 31 385 -1 l86 -22 63 40 c34 22 87 49 116 61
121 45 139 23 139 -167 1 -129 2 -133 27 -160 34 -36 75 -123 89 -193 17 -81
6 -232 -21 -305 -71 -187 -238 -306 -443 -314 l-27 -1 20 -40 c42 -82 50 -142
50 -378 l0 -223 37 7 c56 11 188 61 252 96 127 70 241 164 323 266 262 329
335 749 202 1159 -87 269 -323 536 -594 673 -192 97 -460 140 -675 109z" fill="#698100"/>
</g>
</svg>
